<svg width="50" height="50" viewBox="0 0 50 50" fill="none" xmlns="http://www.w3.org/2000/svg">
<rect width="50" height="50" rx="8" fill="#EE5060"/>
<g clip-path="url(#clip0_1234_731)">
<path d="M18.125 11.25C17.5825 11.25 17.1428 11.6897 17.1428 12.2322V14.1964H19.1071V12.2322C19.1071 11.6897 18.6674 11.25 18.125 11.25Z" fill="white"/>
<path d="M31.875 11.25C31.3325 11.25 30.8928 11.6897 30.8928 12.2322V14.1964H32.8571V12.2322C32.8571 11.6897 32.4174 11.25 31.875 11.25Z" fill="white"/>
<path d="M35.8036 14.1964H32.8571V18.125C32.8571 18.6675 32.4174 19.1072 31.875 19.1072C31.3325 19.1072 30.8928 18.6675 30.8928 18.125V14.1964H19.1071V18.125C19.1071 18.6675 18.6674 19.1072 18.125 19.1072C17.5825 19.1072 17.1428 18.6675 17.1428 18.125V14.1964H14.1964C12.5692 14.1964 11.25 15.5156 11.25 17.1429V35.8036C11.25 37.4309 12.5692 38.75 14.1964 38.75H35.8036C37.4308 38.75 38.75 37.4309 38.75 35.8036V17.1429C38.75 15.5156 37.4308 14.1964 35.8036 14.1964ZM36.7857 35.8036C36.7857 36.346 36.346 36.7857 35.8035 36.7857H14.1964C13.654 36.7857 13.2143 36.346 13.2143 35.8036V23.0357H36.7857V35.8036Z" fill="white"/>
<path d="M19.1071 25H17.1428C16.6004 25 16.1606 25.4397 16.1606 25.9822C16.1606 26.5246 16.6004 26.9643 17.1428 26.9643H19.1071C19.6495 26.9643 20.0892 26.5246 20.0892 25.9822C20.0892 25.4397 19.6495 25 19.1071 25Z" fill="white"/>
<path d="M25.9821 25H24.0178C23.4754 25 23.0356 25.4397 23.0356 25.9822C23.0356 26.5246 23.4754 26.9643 24.0178 26.9643H25.9821C26.5245 26.9643 26.9642 26.5246 26.9642 25.9822C26.9642 25.4397 26.5245 25 25.9821 25Z" fill="white"/>
<path d="M32.8571 25H30.8928C30.3504 25 29.9106 25.4397 29.9106 25.9822C29.9106 26.5246 30.3504 26.9643 30.8928 26.9643H32.8571C33.3995 26.9643 33.8392 26.5246 33.8392 25.9822C33.8392 25.4397 33.3995 25 32.8571 25Z" fill="white"/>
<path d="M19.1071 28.9286H17.1428C16.6004 28.9286 16.1606 29.3683 16.1606 29.9107C16.1606 30.4532 16.6004 30.8929 17.1428 30.8929H19.1071C19.6495 30.8929 20.0892 30.4532 20.0892 29.9107C20.0892 29.3683 19.6495 28.9286 19.1071 28.9286Z" fill="white"/>
<path d="M25.9821 28.9286H24.0178C23.4754 28.9286 23.0356 29.3683 23.0356 29.9107C23.0356 30.4532 23.4754 30.8929 24.0178 30.8929H25.9821C26.5245 30.8929 26.9642 30.4532 26.9642 29.9107C26.9642 29.3683 26.5245 28.9286 25.9821 28.9286Z" fill="white"/>
<path d="M32.8571 28.9286H30.8928C30.3504 28.9286 29.9106 29.3683 29.9106 29.9107C29.9106 30.4532 30.3504 30.8929 30.8928 30.8929H32.8571C33.3995 30.8929 33.8392 30.4532 33.8392 29.9107C33.8392 29.3683 33.3995 28.9286 32.8571 28.9286Z" fill="white"/>
<path d="M19.1071 32.8571H17.1428C16.6004 32.8571 16.1606 33.2968 16.1606 33.8393C16.1606 34.3817 16.6004 34.8214 17.1428 34.8214H19.1071C19.6495 34.8214 20.0892 34.3817 20.0892 33.8392C20.0892 33.2968 19.6495 32.8571 19.1071 32.8571Z" fill="white"/>
<path d="M25.9821 32.8571H24.0178C23.4754 32.8571 23.0356 33.2968 23.0356 33.8393C23.0356 34.3817 23.4754 34.8214 24.0178 34.8214H25.9821C26.5245 34.8214 26.9642 34.3817 26.9642 33.8393C26.9642 33.2968 26.5245 32.8571 25.9821 32.8571Z" fill="white"/>
<path d="M32.8571 32.8571H30.8928C30.3504 32.8571 29.9106 33.2968 29.9106 33.8393C29.9106 34.3817 30.3504 34.8214 30.8928 34.8214H32.8571C33.3995 34.8214 33.8392 34.3817 33.8392 33.8393C33.8392 33.2968 33.3995 32.8571 32.8571 32.8571Z" fill="white"/>
</g>
<defs>
<clipPath id="clip0_1234_731">
<rect width="27.5" height="27.5" fill="white" transform="translate(11.25 11.25)"/>
</clipPath>
</defs>
</svg>
