<svg width="212" height="89" viewBox="0 0 212 89" fill="none" xmlns="http://www.w3.org/2000/svg">
<g filter="url(#filter0_d_1234_770)">
<path d="M39.2574 4.24264C41.6005 1.8995 45.3995 1.8995 47.7426 4.24264L80.7574 37.2574C83.1005 39.6005 83.1005 43.3995 80.7574 45.7426L47.7426 78.7574C45.3995 81.1005 41.6005 81.1005 39.2574 78.7574L6.24264 45.7426C3.8995 43.3995 3.8995 39.6005 6.24264 37.2574L39.2574 4.24264Z" fill="#F0C53E"/>
<path d="M122.257 4.24264C124.601 1.8995 128.399 1.8995 130.743 4.24264L163.757 37.2574C166.101 39.6005 166.101 43.3995 163.757 45.7426L130.743 78.7574C128.399 81.1005 124.601 81.1005 122.257 78.7574L89.2426 45.7426C86.8995 43.3995 86.8995 39.6005 89.2426 37.2574L122.257 4.24264Z" fill="#F0C53E"/>
<path d="M81.2574 4.24264C83.6005 1.8995 87.3995 1.8995 89.7426 4.24264L122.757 37.2574C125.101 39.6005 125.101 43.3995 122.757 45.7426L89.7426 78.7574C87.3995 81.1005 83.6005 81.1005 81.2574 78.7574L48.2426 45.7426C45.8995 43.3995 45.8995 39.6005 48.2426 37.2574L81.2574 4.24264Z" fill="#F0C53E"/>
<path d="M164.257 4.24264C166.601 1.8995 170.399 1.8995 172.743 4.24264L205.757 37.2574C208.101 39.6005 208.101 43.3995 205.757 45.7426L172.743 78.7574C170.399 81.1005 166.601 81.1005 164.257 78.7574L131.243 45.7426C128.899 43.3995 128.899 39.6005 131.243 37.2574L164.257 4.24264Z" fill="#F0C53E"/>
<path d="M39.144 29.536V33.92H33.192V52H27.72V33.92H21.768V29.536H39.144ZM48.6423 37.12C49.2823 36.1387 50.0823 35.3707 51.0423 34.816C52.0023 34.24 53.0689 33.952 54.2423 33.952V39.744H52.7383C51.3729 39.744 50.3489 40.0427 49.6663 40.64C48.9836 41.216 48.6423 42.24 48.6423 43.712V52H43.1703V34.144H48.6423V37.12ZM57.0498 43.04C57.0498 41.2053 57.3911 39.5947 58.0738 38.208C58.7778 36.8213 59.7271 35.7547 60.9218 35.008C62.1164 34.2613 63.4498 33.888 64.9218 33.888C66.1804 33.888 67.2791 34.144 68.2178 34.656C69.1778 35.168 69.9138 35.84 70.4258 36.672V34.144H75.8978V52H70.4258V49.472C69.8924 50.304 69.1458 50.976 68.1858 51.488C67.2471 52 66.1484 52.256 64.8898 52.256C63.4391 52.256 62.1164 51.8827 60.9218 51.136C59.7271 50.368 58.7778 49.2907 58.0738 47.904C57.3911 46.496 57.0498 44.8747 57.0498 43.04ZM70.4258 43.072C70.4258 41.7067 70.0418 40.6293 69.2738 39.84C68.5271 39.0507 67.6098 38.656 66.5218 38.656C65.4338 38.656 64.5058 39.0507 63.7378 39.84C62.9911 40.608 62.6178 41.6747 62.6178 43.04C62.6178 44.4053 62.9911 45.4933 63.7378 46.304C64.5058 47.0933 65.4338 47.488 66.5218 47.488C67.6098 47.488 68.5271 47.0933 69.2738 46.304C70.0418 45.5147 70.4258 44.4373 70.4258 43.072ZM89.1685 46.88L93.0405 34.144H98.8645L92.5285 52H85.7765L79.4405 34.144H85.2965L89.1685 46.88ZM119.28 42.784C119.28 43.296 119.248 43.8293 119.184 44.384H106.8C106.885 45.4933 107.237 46.3467 107.856 46.944C108.496 47.52 109.274 47.808 110.192 47.808C111.557 47.808 112.506 47.232 113.04 46.08H118.864C118.565 47.2533 118.021 48.3093 117.232 49.248C116.464 50.1867 115.493 50.9227 114.32 51.456C113.146 51.9893 111.834 52.256 110.384 52.256C108.634 52.256 107.077 51.8827 105.712 51.136C104.346 50.3893 103.28 49.3227 102.512 47.936C101.744 46.5493 101.36 44.928 101.36 43.072C101.36 41.216 101.733 39.5947 102.48 38.208C103.248 36.8213 104.314 35.7547 105.68 35.008C107.045 34.2613 108.613 33.888 110.384 33.888C112.112 33.888 113.648 34.2507 114.992 34.976C116.336 35.7013 117.381 36.736 118.128 38.08C118.896 39.424 119.28 40.992 119.28 42.784ZM113.68 41.344C113.68 40.4053 113.36 39.6587 112.72 39.104C112.08 38.5493 111.28 38.272 110.32 38.272C109.402 38.272 108.624 38.5387 107.984 39.072C107.365 39.6053 106.981 40.3627 106.832 41.344H113.68ZM128.919 28.32V52H123.447V28.32H128.919ZM139.636 28.32V52H134.164V28.32H139.636ZM147.633 32.288C146.673 32.288 145.884 32.0107 145.265 31.456C144.668 30.88 144.369 30.176 144.369 29.344C144.369 28.4907 144.668 27.7867 145.265 27.232C145.884 26.656 146.673 26.368 147.633 26.368C148.572 26.368 149.34 26.656 149.937 27.232C150.556 27.7867 150.865 28.4907 150.865 29.344C150.865 30.176 150.556 30.88 149.937 31.456C149.34 32.0107 148.572 32.288 147.633 32.288ZM150.353 34.144V52H144.881V34.144H150.353ZM166.479 33.952C168.57 33.952 170.234 34.6347 171.471 36C172.73 37.344 173.359 39.2 173.359 41.568V52H167.919V42.304C167.919 41.1093 167.61 40.1813 166.991 39.52C166.372 38.8587 165.54 38.528 164.495 38.528C163.45 38.528 162.618 38.8587 161.999 39.52C161.38 40.1813 161.071 41.1093 161.071 42.304V52H155.599V34.144H161.071V36.512C161.626 35.7227 162.372 35.104 163.311 34.656C164.25 34.1867 165.306 33.952 166.479 33.952ZM195.274 42.784C195.274 43.296 195.242 43.8293 195.178 44.384H182.794C182.879 45.4933 183.231 46.3467 183.85 46.944C184.49 47.52 185.268 47.808 186.186 47.808C187.551 47.808 188.5 47.232 189.034 46.08H194.858C194.559 47.2533 194.015 48.3093 193.226 49.248C192.458 50.1867 191.487 50.9227 190.314 51.456C189.14 51.9893 187.828 52.256 186.378 52.256C184.628 52.256 183.071 51.8827 181.706 51.136C180.34 50.3893 179.274 49.3227 178.506 47.936C177.738 46.5493 177.354 44.928 177.354 43.072C177.354 41.216 177.727 39.5947 178.474 38.208C179.242 36.8213 180.308 35.7547 181.674 35.008C183.039 34.2613 184.607 33.888 186.378 33.888C188.106 33.888 189.642 34.2507 190.986 34.976C192.33 35.7013 193.375 36.736 194.122 38.08C194.89 39.424 195.274 40.992 195.274 42.784ZM189.674 41.344C189.674 40.4053 189.354 39.6587 188.714 39.104C188.074 38.5493 187.274 38.272 186.314 38.272C185.396 38.272 184.618 38.5387 183.978 39.072C183.359 39.6053 182.975 40.3627 182.826 41.344H189.674Z" fill="#2C2D32"/>
</g>
<defs>
<filter id="filter0_d_1234_770" x="0.485229" y="2.48529" width="211.03" height="86.0294" filterUnits="userSpaceOnUse" color-interpolation-filters="sRGB">
<feFlood flood-opacity="0" result="BackgroundImageFix"/>
<feColorMatrix in="SourceAlpha" type="matrix" values="0 0 0 0 0 0 0 0 0 0 0 0 0 0 0 0 0 0 127 0" result="hardAlpha"/>
<feOffset dy="4"/>
<feGaussianBlur stdDeviation="2"/>
<feComposite in2="hardAlpha" operator="out"/>
<feColorMatrix type="matrix" values="0 0 0 0 0 0 0 0 0 0 0 0 0 0 0 0 0 0 0.25 0"/>
<feBlend mode="normal" in2="BackgroundImageFix" result="effect1_dropShadow_1234_770"/>
<feBlend mode="normal" in="SourceGraphic" in2="effect1_dropShadow_1234_770" result="shape"/>
</filter>
</defs>
</svg>
